<svg width="33" height="30" viewBox="0 0 33 30" fill="none" xmlns="http://www.w3.org/2000/svg">
<rect width="32.9167" height="29.5833" transform="translate(0 0.416626)" fill="white"/>
<path d="M17.8298 25.0694V18.9062H15.0867V25.0694C15.0867 25.7232 14.7977 26.3503 14.2833 26.8126C13.7689 27.275 13.0712 27.5347 12.3437 27.5347H8.2291C7.50159 27.5347 6.80389 27.275 6.28947 26.8126C5.77504 26.3503 5.48604 25.7232 5.48604 25.0694V15.7137L5.07458 16.0835C4.95059 16.2117 4.79847 16.3154 4.62774 16.3883C4.45702 16.4611 4.27138 16.5015 4.08249 16.5068C3.89359 16.5121 3.70551 16.4823 3.53004 16.4192C3.35458 16.3561 3.19551 16.2611 3.06283 16.1402C2.93014 16.0192 2.8267 15.8749 2.759 15.7164C2.6913 15.5578 2.66079 15.3883 2.66939 15.2187C2.67799 15.049 2.72552 14.8827 2.80899 14.7304C2.89246 14.578 3.01007 14.4427 3.15445 14.3331L15.4982 3.23938C15.7546 3.01353 16.0993 2.88702 16.4583 2.88702C16.8173 2.88702 17.162 3.01353 17.4183 3.23938L29.7621 14.3331C29.9888 14.5675 30.1087 14.8701 30.0978 15.1805C30.087 15.4908 29.9462 15.7861 29.7037 16.0072C29.4611 16.2284 29.1346 16.3591 28.7894 16.3732C28.4443 16.3873 28.1059 16.2839 27.8419 16.0835L27.4305 15.7137V25.0694C27.4305 25.7232 27.1415 26.3503 26.6271 26.8126C26.1126 27.275 25.4149 27.5347 24.6874 27.5347H20.5728C19.8453 27.5347 19.1476 27.275 18.6332 26.8126C18.1188 26.3503 17.8298 25.7232 17.8298 25.0694ZM24.6874 25.0694V13.2484L16.4583 5.85258L8.2291 13.2484V25.0694H12.3437V18.9062C12.3437 17.5503 13.5781 16.4409 15.0867 16.4409H17.8298C18.5573 16.4409 19.255 16.7007 19.7694 17.163C20.2838 17.6253 20.5728 18.2524 20.5728 18.9062V25.0694H24.6874Z" fill="black"/>
</svg>
