<svg width="31" height="30" viewBox="0 0 31 30" fill="none" xmlns="http://www.w3.org/2000/svg">
<rect width="30" height="30" transform="translate(0.25)" fill="white"/>
<path d="M25.25 26.25V23.75C25.25 22.4239 24.7232 21.1521 23.7855 20.2145C22.8478 19.2768 21.5761 18.75 20.25 18.75H10.25C8.92392 18.75 7.65215 19.2768 6.71447 20.2145C5.77678 21.1521 5.25 22.4239 5.25 23.75V26.25" stroke="black" stroke-width="2" stroke-linecap="round" stroke-linejoin="round"/>
<path d="M15.25 13.75C18.0114 13.75 20.25 11.5114 20.25 8.75C20.25 5.98858 18.0114 3.75 15.25 3.75C12.4886 3.75 10.25 5.98858 10.25 8.75C10.25 11.5114 12.4886 13.75 15.25 13.75Z" stroke="black" stroke-width="2" stroke-linecap="round" stroke-linejoin="round"/>
</svg>
